<?xml version="1.0" ?>
<!-- Uploaded to: SVG Repo, www.svgrepo.com, Generator: SVG Repo Mixer Tools -->
<svg width="800px" height="800px" viewBox="0 0 32 32" xmlns="http://www.w3.org/2000/svg">
<title/>
<g data-name="filled line" id="filled_line">
<path d="M18.28,6.23l5.43,11.23-5.27,3.01a1.0054,1.0054,0,0,1-1.32-.3A4.9987,4.9987,0,0,0,8,23v.14a1.0316,1.0316,0,0,1-.37.93,1.0641,1.0641,0,0,1-.65.24,1.1151,1.1151,0,0,1-.31-.05,7.1268,7.1268,0,0,1-1.1-12.83A3.8742,3.8742,0,0,1,4.5,9.74a3.832,3.832,0,0,1,.67-3.29.9957.9957,0,1,1,1.66,1.1,1.9977,1.9977,0,0,0-.41,1.63,2.5789,2.5789,0,0,0,1.19,1.31Z" style="fill:#246eb9"/>
<path d="M29.54,14.13l-4.09,2.33L20.14,5.49l4.37-1.74a1.0038,1.0038,0,0,1,1.27.49l4.16,8.58A1.0091,1.0091,0,0,1,29.54,14.13Z" style="fill:#246eb9"/>
<path d="M8,6A1,1,0,0,1,7,5V4A1,1,0,0,1,9,4V5A1,1,0,0,1,8,6Z" style="fill:#f6ae2d"/>
<path d="M10,8H9A1,1,0,0,1,9,6h1a1,1,0,0,1,0,2Z" style="fill:#f6ae2d"/>
<polygon points="25.45 16.46 23.71 17.46 18.28 6.23 20.14 5.49 25.45 16.46" style="fill:#f6ae2d"/>
<path d="M18.7637,19.0322A6.9979,6.9979,0,0,0,6,23a3.081,3.081,0,0,0,.0244.4287,6.9943,6.9943,0,1,0,12.7393-4.3965Z" style="fill:#2b2a2a"/>
<path d="M16,22H14V20a1,1,0,0,0-2,0v2H10a1,1,0,0,0,0,2h2v2a1,1,0,0,0,2,0V24h2a1,1,0,0,0,0-2Z" style="fill:#f6ae2d"/>
<path d="M8,6A1,1,0,0,0,9,5V4A1,1,0,0,0,7,4V5A1,1,0,0,0,8,6Z"/>
<path d="M8,7A1,1,0,0,0,9,8h1a1,1,0,0,0,0-2H9A1,1,0,0,0,8,7Z"/>
<path d="M16,22H14V20a1,1,0,0,0-2,0v2H10a1,1,0,0,0,0,2h2v2a1,1,0,0,0,2,0V24h2a1,1,0,0,0,0-2Z"/>
<path d="M29.94,12.8232l-4.16-8.58A1.001,1.001,0,0,0,24.51,3.75L7.61,10.4874a3.5674,3.5674,0,0,1-.6829-.523L6.4339,8.3875a2.868,2.868,0,0,1,.3981-.8328A1,1,0,1,0,5.168,6.4453a3.85,3.85,0,0,0-.6651,3.291,3.87,3.87,0,0,0,1.0639,1.6953,7.1243,7.1243,0,0,0,.52,12.5767,6.9928,6.9928,0,1,0,13.22-4.0384l10.2288-5.842A1,1,0,0,0,29.94,12.8232ZM4.5508,19.8154a5.1373,5.1373,0,0,1,2.3779-6.8525c.1973-.0938.5576-.2734.561-.2783L19.1519,8.0377l3.6845,7.614L18.19,18.3057a7.0029,7.0029,0,0,0-.54-.5338c-.0417-.0372-.0875-.0688-.13-.105-.159-.1349-.3213-.2649-.4911-.3846-.0754-.0532-.1544-.1-.2317-.15-.1441-.0933-.29-.1837-.44-.2662-.0888-.0487-.1794-.0929-.27-.1377-.147-.0724-.2956-.14-.4474-.2022-.0954-.039-.191-.0762-.2882-.111-.1555-.0556-.3134-.1039-.4729-.1485-.0966-.027-.1922-.0553-.29-.0782-.175-.0408-.3525-.071-.531-.0984-.0849-.0131-.1685-.0307-.2541-.0406A6.9744,6.9744,0,0,0,13,16c-.2286,0-.4542.0128-.6772.0343-.0735.0071-.1451.02-.2179.0295-.1484.0191-.2962.0393-.4416.0676-.0846.0164-.1673.0376-.2508.0571-.1308.03-.2608.0624-.3886.1-.0856.0253-.17.0534-.2538.0819-.1229.0415-.2444.0856-.3642.1336q-.1238.0495-.245.1033c-.118.0526-.2337.1092-.3482.1681-.077.04-.1541.0787-.2294.121-.1161.0654-.2287.1356-.3407.2073-.0682.0436-.1376.0852-.2041.1311-.1228.0847-.2406.1755-.3576.2676-.05.0394-.1023.0758-.1513.1165-.1628.1356-.32.2777-.47.4273-.0264.0263-.05.0552-.0758.0819-.122.1256-.2408.2542-.3532.3887-.0482.0577-.0922.1187-.1386.178-.0844.1078-.168.2162-.2462.329-.0492.0709-.0946.1443-.1412.2171-.0686.1071-.1355.215-.1982.3259-.0444.0784-.0861.1581-.1274.2383q-.0862.1669-.1634.3387c-.0375.0833-.0736.1669-.1079.2519-.0472.1173-.09.2365-.1309.3569-.0292.0859-.059.1712-.0849.2585-.0378.1273-.0692.2569-.1.387-.02.0837-.0419.1664-.0587.2513-.0039.02-.01.0393-.0139.0595A5.1363,5.1363,0,0,1,4.5508,19.8154ZM13,28a4.9829,4.9829,0,0,1-4.9814-4.73c-.001-.0224-.0132-.11-.0157-.1328A1.1628,1.1628,0,0,1,8,23a5,5,0,1,1,5,5ZM24.5768,14.6577,21.0145,7.2955l3.3712-1.3434,3.3467,6.9034Z"/>
</g>
</svg>